<?xml version="1.0" encoding="UTF-8"?>
<svg id="Layer_1" xmlns="http://www.w3.org/2000/svg" version="1.1" viewBox="0 0 400 400">
  <!-- Generator: Adobe Illustrator 29.8.0, SVG Export Plug-In . SVG Version: 2.1.1 Build 160)  -->
  <defs>
    <style>
      .st0 {
        fill: #155dfb;
      }

      .st1 {
        fill: #333;
      }
    </style>
  </defs>
  <path class="st0" d="M322.8,181.6c2.8-5.4,19.8,3.1,66.2-34.6,0,0-174,81-183.8,77.4s-36.1,17-18.5,26.8c0,0,32.4,22.2,54.2,16.7,0,0-38-18.2-39.1-29-1.1-10.9,30.2,23.6,61.4,19.8,0,0-33.9-7.3-34.8-25.2-.9-17.9,20.5,16.4,66,4.2,0,0-14.3-8.4-18.3-9.5-4-1,36.4-2.9,55.8-16.8,0,0-24.1-.6-24.1-5.3s44.1-10.7,58-28.2c0,0-45.8,9.2-43,3.8"/>
  <path class="st0" d="M231.5,134.6c-37.7,3.5-58.2,98.8-58.2,98.8,43.3-65.4,55.8-64.9,101.7-59.8s104-51.5,104-51.5c-24,21-109.7,8.9-147.5,12.5"/>
  <path class="st0" d="M207,270l6,5.3s-43.1,4.2-56-34.9c0,0,20.4-38.4,15.9-65.6,0-.4-.1-.9-.2-1.3v-6.8c0-.4,0-.8.1-1.2h0c0-.4.1-.8.2-1.3,4.1-21.8,30.1-37,30.1-37,0,0,27-14.4,93.9-11.1l5.3-4.9s-10.8,0-56.2-3.5c-40.7-3.2-72.6,35.8-78.9,44-2.6-5.9-4.2-9.4-4.2-9.4,0,0-8.9-10.4-31.6-1.7l-16,10c-2.7-14.4,6.9-48.8,144.9-70.3,0,0,64.8-6.8,54.7-54.3-.1,3.1,11,45.6-75.2,54.2s-115.9,33.3-115.9,33.3c0,0-24.4,22.1-21.7,45.3l-57.5,35.7,70.1,140.4,1.3.9,9.3-7.9-5.8-3.6-66.3-127.8,64.7-39.2,16.5-10s22.7-6.5,27.2,0c0,0-.2,1.6-1.6,2.4-1.3.8-93.2,56.5-93.2,56.5l74,146.2,1.8.7,80.2-68.1s4.1-3.9.1-10.9c-7.4-.8-14-2-16.2-4"/>
  <path class="st0" d="M250.5,89c22.7,1.3,52.1,9.7,52.1,9.7,4.6-12.3-38.4-10.7-38.4-10.7,0,0,29.4-3.6,38.4-7.8,9-4.3,13.8-19.8,13.8-19.8-7.7,16-43.2,25-65.8,28.7"/>
  <path class="st1" d="M256.7,268.8c-5.5,2.2-6.6,8.3-9.4,10-2.8,1.7-12.2-.6-12.2-.6v6.6l-93.7,79.2-10.4-5.5v-10l-11.6-5-4.4,2.2-7.2-2.2L33.5,189.3l59-36.8c-2.5-12.1,6.9-26.8,13.2-35.1-54.7,15.7-94.7,66.1-94.7,125.8s58.6,131,131,131,117.9-46.5,128.9-107.8c-5.6.6-11.6,1.3-14.2,2.4"/>
</svg>