<?xml version="1.0" encoding="UTF-8"?>
<svg id="Layer_2" xmlns="http://www.w3.org/2000/svg" version="1.1" viewBox="0 0 285 262.8">
  <!-- Generator: Adobe Illustrator 29.8.0, SVG Export Plug-In . SVG Version: 2.1.1 Build 160)  -->
  <defs>
    <style>
      .st0 {
        fill: #155dfb;
      }

      .st1 {
        fill: #333;
      }
    </style>
  </defs>
  <g id="Layer_1-2">
    <path class="st0" d="M235.1,117.5c2.1-4,14.9,2.3,49.9-26.1,0,0-131.2,61.1-138.6,58.4-7.4-2.7-27.2,12.8-13.9,20.2,0,0,24.5,16.7,40.9,12.6,0,0-28.6-13.7-29.5-21.9-.8-8.2,22.7,17.8,46.3,14.9,0,0-25.6-5.5-26.2-19-.7-13.5,15.5,12.4,49.8,3.1,0,0-10.8-6.4-13.8-7.1-3-.8,27.5-2.2,42.1-12.7,0,0-18.2-.4-18.2-4s33.3-8.1,43.7-21.3c0,0-34.5,6.9-32.4,2.9"/>
    <path class="st0" d="M166.2,82.1c-28.4,2.7-43.9,74.5-43.9,74.5,32.6-49.3,42.1-48.9,76.7-45.1s78.4-38.8,78.4-38.8c-18.1,15.8-82.8,6.7-111.2,9.4"/>
    <path class="st0" d="M147.8,184.2l4.6,4s-32.5,3.2-42.2-26.4c0,0,15.4-29,12-49.5,0-.3-.1-.7-.1-1,0-.1,0-.2,0-.3,0-.2,0-.4,0-.7,0-.1,0-.2,0-.3,0-.2,0-.4,0-.7v-1.2c0-.2,0-.5,0-.8,0,0,0-.1,0-.2,0-.3,0-.5,0-.8,0,0,0,0,0-.1,0-.3,0-.6.1-.9h0c0-.4,0-.7.2-1,3.1-16.4,22.7-27.9,22.7-27.9,0,0,20.4-10.9,70.8-8.4l4-3.7s-8.1,0-42.3-2.7c-30.7-2.4-54.8,27-59.5,33.2-2-4.4-3.2-7.1-3.2-7.1,0,0-6.7-7.8-23.9-1.3l-12.1,7.5c-2.1-10.9,5.2-36.8,109.3-53,0,0,48.9-5.1,41.3-41-.1,2.3,8.3,34.4-56.7,40.9-65,6.5-87.4,25.1-87.4,25.1,0,0-18.4,16.7-16.4,34.2l-43.3,27,52.9,105.9,1,.7,7-6-4.3-2.7-50-96.4,48.8-29.6,12.4-7.5s17.1-4.9,20.5,0c0,0-.2,1.2-1.2,1.8-1,.6-70.3,42.6-70.3,42.6l55.8,110.3,1.4.5,60.4-51.3s3.1-2.9.1-8.2c-5.6-.6-10.5-1.5-12.2-3"/>
    <path class="st0" d="M180.6,47.7c17.1,1,39.2,7.3,39.2,7.3,3.5-9.3-29-8.1-29-8.1,0,0,22.2-2.7,29-5.9s10.4-14.9,10.4-14.9c-5.8,12.1-32.6,18.9-49.6,21.6"/>
    <path class="st1" d="M185.2,183.3c-4.2,1.7-5,6.3-7.1,7.5-2.1,1.2-9.2-.4-9.2-.4v5l-70.6,59.7-7.8-4.2v-7.5l-8.8-3.8-3.3,1.7-5.4-1.7L17,123.3l44.5-27.7c-1.9-9.1,5.2-20.2,9.9-26.5C30.2,81,0,119,0,164s44.2,98.7,98.8,98.7,88.9-35.1,97.2-81.3c-4.2.4-8.8,1-10.7,1.8"/>
  </g>
</svg>